# xmcd
#
# Track frame offsets:
# 150
# 15145
# 31620
# 49190
# 66350
# 81035
# 97625
# 120337
# 137077
# 155607
# 176182
# 189785
#
# Disc length: 3011 seconds
#
#
# Revision: 2
# Processed by: cddbd v1.5.1PL0 Copyright (c) Steve Scherf et al.
# Submitted via: FreeRIP 2.90 
#
DISCID=840bc10c
DTITLE=Matchbox Twenty - More Than You Think You Are
DYEAR=1900
DGENRE=
TTITLE0=Feel
TTITLE1=Disease
TTITLE2=Bright Lights
TTITLE3=Unwell
TTITLE4=Cold
TTITLE5=All I Need
TTITLE6=Hand Me Down
TTITLE7=Could I Be You
TTITLE8=Downfall
TTITLE9=Soul
TTITLE10=You're So Real
TTITLE11=The Difference
EXTD=
EXTT0=
EXTT1=
EXTT2=
EXTT3=
EXTT4=
EXTT5=
EXTT6=
EXTT7=
EXTT8=
EXTT9=
EXTT10=
EXTT11=
PLAYORDER=
